HIERARCHY
ROOT hip
{
  OFFSET 0.00112043 5.09927 -9.65472
  CHANNELS 6 Xposition Yposition Zposition Zrotation Xrotation Yrotation
  JOINT abdomen
  {
    OFFSET 0 -1.186 -1.5018
    CHANNELS 3 Zrotation Xrotation Yrotation
    JOINT abdomen2
    {
      OFFSET 0 9.964 0.2134
      CHANNELS 3 Zrotation Xrotation Yrotation
      JOINT chest
      {
        OFFSET 0 13.134 -3.2573
        CHANNELS 3 Zrotation Xrotation Yrotation
        JOINT neck
        {
          OFFSET 0 20.686 -1.6905
          CHANNELS 3 Zrotation Xrotation Yrotation
          JOINT head
          {
            OFFSET 0 7.238 -0.1237
            CHANNELS 3 Zrotation Xrotation Yrotation
            End Site
            {
              OFFSET 0 0 0
            }
          }
        }
        JOINT lCollar
        {
          OFFSET 1.7069 20.075 5.0056
          CHANNELS 3 Zrotation Xrotation Yrotation
          JOINT lShldr
          {
            OFFSET 13.6458 -0.047 -4.849
            CHANNELS 3 Zrotation Xrotation Yrotation
            JOINT lForeArm
            {
              OFFSET 28.3255 -0.9759 2.2888
              CHANNELS 3 Zrotation Xrotation Yrotation
              JOINT lHand
              {
                OFFSET 22.1583 -0.53 10.8316
                CHANNELS 3 Zrotation Xrotation Yrotation
                JOINT lThumb1
                {
                  OFFSET 0.786 0.112 2.5817
                  CHANNELS 3 Zrotation Xrotation Yrotation
                  JOINT lThumb2
                  {
                    OFFSET 0.3601 -0.878 4.2331
                    CHANNELS 3 Zrotation Xrotation Yrotation
                    JOINT lThumb2_End
                    {
                      OFFSET 1.8127 -1.216 2.2227
                      CHANNELS 3 Zrotation Xrotation Yrotation
                      End Site
                      {
                        OFFSET 0.0181 -0.0122 0.0222
                      }
                    }
                  }
                }
                JOINT lCarpal1
                {
                  OFFSET 0.9571 1.114 1.7695
                  CHANNELS 3 Zrotation Xrotation Yrotation
                  JOINT lIndex1
                  {
                    OFFSET 4.1246 0.487 4.1451
                    CHANNELS 3 Zrotation Xrotation Yrotation
                    JOINT lIndex2
                    {
                      OFFSET 3.4052 -1.454 2.7682
                      CHANNELS 3 Zrotation Xrotation Yrotation
                      JOINT lIndex2_End
                      {
                        OFFSET 1.4531 -1.795 1.2713
                        CHANNELS 3 Zrotation Xrotation Yrotation
                        End Site
                        {
                          OFFSET 0.0145 -0.0179 0.0127
                        }
                      }
                    }
                  }
                  JOINT lMid1
                  {
                    OFFSET 5.6954 0.21 2.1184
                    CHANNELS 3 Zrotation Xrotation Yrotation
                    JOINT lMid2
                    {
                      OFFSET 3.9766 -1.54 2.3863
                      CHANNELS 3 Zrotation Xrotation Yrotation
                      JOINT lMid2_End
                      {
                        OFFSET 1.4042 -1.926 1.125
                        CHANNELS 3 Zrotation Xrotation Yrotation
                        End Site
                        {
                          OFFSET 0.014 -0.0193 0.0113
                        }
                      }
                    }
                  }
                }
                JOINT lCarpal2
                {
                  OFFSET 2.0956 0.66 -0.3894
                  CHANNELS 3 Zrotation Xrotation Yrotation
                  JOINT lRing1
                  {
                    OFFSET 5.0395 -0.09 2.4971
                    CHANNELS 3 Zrotation Xrotation Yrotation
                    JOINT lRing2
                    {
                      OFFSET 3.7921 -1.552 1.4806
                      CHANNELS 3 Zrotation Xrotation Yrotation
                      JOINT lRing2_End
                      {
                        OFFSET 1.4655 -1.808 0.9609
                        CHANNELS 3 Zrotation Xrotation Yrotation
                        End Site
                        {
                          OFFSET 0.0147 -0.0181 0.0096
                        }
                      }
                    }
                  }
                  JOINT lPinky1
                  {
                    OFFSET 4.9141 -1.269 0.3591
                    CHANNELS 3 Zrotation Xrotation Yrotation
                    JOINT lPinky2
                    {
                      OFFSET 3.1477 -1.685 0.8462
                      CHANNELS 3 Zrotation Xrotation Yrotation
                      JOINT lPinky2_End
                      {
                        OFFSET 0.8055 -1.585 0.7955
                        CHANNELS 3 Zrotation Xrotation Yrotation
                        End Site
                        {
                          OFFSET 0.0081 -0.0158 0.008
                        }
                      }
                    }
                  }
                }
              }
            }
          }
        }
        JOINT rCollar
        {
          OFFSET -1.7069 20.075 5.0056
          CHANNELS 3 Zrotation Xrotation Yrotation
          JOINT rShldr
          {
            OFFSET -13.6458 -0.047 -4.849
            CHANNELS 3 Zrotation Xrotation Yrotation
            JOINT rForeArm
            {
              OFFSET -28.3255 -0.9759 2.2888
              CHANNELS 3 Zrotation Xrotation Yrotation
              JOINT rHand
              {
                OFFSET -22.1583 -0.53 10.8316
                CHANNELS 3 Zrotation Xrotation Yrotation
                JOINT rThumb1
                {
                  OFFSET -0.786 0.112 2.5817
                  CHANNELS 3 Zrotation Xrotation Yrotation
                  JOINT rThumb2
                  {
                    OFFSET -0.3601 -0.878 4.2331
                    CHANNELS 3 Zrotation Xrotation Yrotation
                    JOINT rThumb2_End
                    {
                      OFFSET -1.8127 -1.216 2.2227
                      CHANNELS 3 Zrotation Xrotation Yrotation
                      End Site
                      {
                        OFFSET -0.0181 -0.0122 0.0222
                      }
                    }
                  }
                }
                JOINT rCarpal1
                {
                  OFFSET -0.9571 1.114 1.7695
                  CHANNELS 3 Zrotation Xrotation Yrotation
                  JOINT rIndex1
                  {
                    OFFSET -4.1246 0.487 4.1451
                    CHANNELS 3 Zrotation Xrotation Yrotation
                    JOINT rIndex2
                    {
                      OFFSET -3.4052 -1.454 2.7682
                      CHANNELS 3 Zrotation Xrotation Yrotation
                      JOINT rIndex2_End
                      {
                        OFFSET -1.4531 -1.795 1.2713
                        CHANNELS 3 Zrotation Xrotation Yrotation
                        End Site
                        {
                          OFFSET -0.0145 -0.018 0.0127
                        }
                      }
                    }
                  }
                  JOINT rMid1
                  {
                    OFFSET -5.6954 0.21 2.1184
                    CHANNELS 3 Zrotation Xrotation Yrotation
                    JOINT rMid2
                    {
                      OFFSET -3.9766 -1.54 2.3863
                      CHANNELS 3 Zrotation Xrotation Yrotation
                      JOINT rMid2_End
                      {
                        OFFSET -1.4042 -1.926 1.125
                        CHANNELS 3 Zrotation Xrotation Yrotation
                        End Site
                        {
                          OFFSET -0.014 -0.0193 0.0113
                        }
                      }
                    }
                  }
                }
                JOINT rCarpal2
                {
                  OFFSET -2.0956 0.66 -0.3894
                  CHANNELS 3 Zrotation Xrotation Yrotation
                  JOINT rRing1
                  {
                    OFFSET -5.0395 -0.09 2.4971
                    CHANNELS 3 Zrotation Xrotation Yrotation
                    JOINT rRing2
                    {
                      OFFSET -3.7921 -1.552 1.4806
                      CHANNELS 3 Zrotation Xrotation Yrotation
                      JOINT rRing2_End
                      {
                        OFFSET -1.4655 -1.808 0.9609
                        CHANNELS 3 Zrotation Xrotation Yrotation
                        End Site
                        {
                          OFFSET -0.0147 -0.0181 0.0096
                        }
                      }
                    }
                  }
                  JOINT rPinky1
                  {
                    OFFSET -4.9141 -1.269 0.3592
                    CHANNELS 3 Zrotation Xrotation Yrotation
                    JOINT rPinky2
                    {
                      OFFSET -3.1477 -1.685 0.8462
                      CHANNELS 3 Zrotation Xrotation Yrotation
                      JOINT rPinky2_End
                      {
                        OFFSET -0.8055 -1.585 0.7955
                        CHANNELS 3 Zrotation Xrotation Yrotation
                        End Site
                        {
                          OFFSET -0.0081 -0.0158 0.008
                        }
                      }
                    }
                  }
                }
              }
            }
          }
        }
      }
    }
  }
  JOINT lThigh
  {
    OFFSET 8.367 -8.2066 0.5982
    CHANNELS 3 Zrotation Xrotation Yrotation
    JOINT lShin
    {
      OFFSET 2.1923 -43.463 -0.4932
      CHANNELS 3 Zrotation Xrotation Yrotation
      JOINT lFoot
      {
        OFFSET 0.7333 -45.8593 -2.6451
        CHANNELS 3 Zrotation Xrotation Yrotation
        End Site
        {
          OFFSET 2.6618 -4.2699 12.3931
        }
      }
    }
  }
  JOINT rThigh
  {
    OFFSET -8.367 -8.2066 0.5982
    CHANNELS 3 Zrotation Xrotation Yrotation
    JOINT rShin
    {
      OFFSET -2.1923 -43.463 -0.4931
      CHANNELS 3 Zrotation Xrotation Yrotation
      JOINT rFoot
      {
        OFFSET -0.7333 -45.8593 -2.6451
        CHANNELS 3 Zrotation Xrotation Yrotation
        End Site
        {
          OFFSET -2.6618 -4.2699 12.3931
        }
      }
    }
  }
}
MOTION
Frames:	4
Frame Time:	0.0333333
0 91.7903 2.51682 0 0 -0 0 0 -0 0 0 -0 0 0 -0 0 0 -0 0 0 -0 0 0 -0 1.66051 0.0835086 5.75766 -0.0175111 0.895433 15.7816 7.95139e-016 -1.98785e-016 -0 5.46658e-016 -3.97569e-016 -0 5.96354e-016 0 -0 3.97569e-016 1.98785e-016 9.54166e-015 1.49089e-016 -3.97569e-016 -0 6.4605e-016 0 3.18055e-015 5.96354e-016 0 3.18055e-015 8.94531e-016 -1.98785e-016 6.36111e-015 6.4605e-016 0 3.18055e-015 5.96354e-016 0 3.18055e-015 8.94531e-016 -1.98785e-016 6.36111e-015 1.49089e-016 -3.97569e-016 -0 6.4605e-016 0 3.18055e-015 5.96354e-016 0 3.18055e-015 8.94531e-016 -1.98785e-016 6.36111e-015 6.4605e-016 0 3.18055e-015 5.96354e-016 0 3.18055e-015 8.94531e-016 -1.98785e-016 6.36111e-015 0 0 -0 -1.4496 0.0636048 -5.0245 -1.74811 1.20616 -16.8394 -1.19271e-015 1.98785e-016 -3.18055e-015 -3.97569e-016 1.98785e-016 -3.18055e-015 -2.98177e-016 1.98785e-016 -3.18055e-015 -2.98177e-016 3.97569e-016 -0 4.96962e-016 0 -6.36111e-015 -9.93923e-017 3.97569e-016 -0 -8.94531e-016 5.96354e-016 -0 -3.97569e-016 3.97569e-016 -0 -9.93923e-017 3.97569e-016 -0 -8.94531e-016 5.96354e-016 -0 -3.97569e-016 3.97569e-016 -0 4.96962e-016 0 -6.36111e-015 -9.93923e-017 3.97569e-016 -0 -8.94531e-016 5.96354e-016 -0 -3.97569e-016 3.97569e-016 -0 -9.93923e-017 3.97569e-016 -0 -8.94531e-016 5.96354e-016 -0 -3.97569e-016 3.97569e-016 -0 -4.66111 -0.998717 0.12318 0.00986924 1.54847 0.176523 4.65186 -0.572283 -0.254274 4.66111 -0.998765 -0.123176 -0.00986867 1.54869 -0.176537 -4.65186 -0.572453 0.25427 
-0.121862 33.7865 -76.4292 -0 -63.0022 -0 0 12.9987 -0 0 25.9973 -0 0 25.9973 -0 -0 -5.97551e-006 -0 0.000829395 0.274519 -0.173106 -0 -5.97551e-006 -0 -74.5738 -15.7973 -9.36691 12.3892 16.1457 -30.4201 12.7 27.3663 -4.93143 9.54166e-015 -1.59028e-015 -3.18055e-015 4.77083e-015 3.18055e-015 -3.18055e-015 3.18055e-015 0 3.18055e-015 9.54166e-015 -1.59028e-015 -3.18055e-015 1.43125e-014 9.54166e-015 1.27222e-014 3.18055e-015 0 -9.54166e-015 1.59028e-015 -1.59028e-015 -3.18055e-015 1.43125e-014 9.54166e-015 1.27222e-014 3.18055e-015 0 -9.54166e-015 1.59028e-015 -1.59028e-015 -3.18055e-015 9.54166e-015 -1.59028e-015 -3.18055e-015 1.43125e-014 9.54166e-015 1.27222e-014 3.18055e-015 0 -9.54166e-015 1.59028e-015 -1.59028e-015 -3.18055e-015 1.43125e-014 9.54166e-015 1.27222e-014 3.18055e-015 0 -9.54166e-015 1.59028e-015 -1.59028e-015 -3.18055e-015 -0 -5.97551e-006 -0 61.354 26.0387 25.0007 -3.03741 -6.81817 44.7943 64.1958 20.7121 -11.2364 7.95139e-016 1.19271e-015 -8.57259e-015 1.59028e-015 7.95139e-016 8.94531e-016 1.59028e-015 7.95139e-016 7.95139e-016 1.18796e-031 7.95139e-016 -8.56016e-015 -7.95139e-016 0 9.93923e-016 7.95139e-016 7.95139e-016 9.81499e-016 7.95139e-016 7.95139e-016 9.06955e-016 -7.95139e-016 0 9.93923e-016 7.95139e-016 7.95139e-016 9.81499e-016 7.95139e-016 7.95139e-016 9.06955e-016 1.18796e-031 7.95139e-016 -8.56016e-015 -7.95139e-016 0 9.93923e-016 7.95139e-016 7.95139e-016 9.81499e-016 7.95139e-016 7.95139e-016 9.06955e-016 -7.95139e-016 0 9.93923e-016 7.95139e-016 7.95139e-016 9.81499e-016 7.95139e-016 7.95139e-016 9.06955e-016 5.23093 -31.9279 -17.5326 0.628018 69.8939 2.61141 5.0385 19.5134 1.11832 -5.22668 -32.1903 14.5065 -0.665437 69.7058 -2.78568 -6.15371 25.6259 -0.595409 
-0.121495 33.7747 -76.4086 -0 -63.0022 -0 0 12.9987 -0 0 25.9973 -0 0 25.9973 -0 0 5.31633e-005 -0 0.000829396 0.274519 -0.173106 -0 -8.32304e-006 -0 -74.5738 -15.7973 -9.36691 12.3892 16.1457 -30.4202 12.7 27.3663 -4.93144 1.52178e-007 -3.74803e-007 -1.36051e-007 -2.84625e-006 -1.59223e-006 -2.10482e-007 1.52178e-007 -3.74803e-007 -1.36051e-007 -8.82781e-032 1.59028e-015 3.18055e-015 1.52178e-007 -3.74803e-007 -1.36051e-007 -2.84625e-006 -1.59223e-006 -2.10482e-007 1.52178e-007 -3.74803e-007 -1.36051e-007 1.52178e-007 -3.74803e-007 -1.36051e-007 -2.84625e-006 -1.59223e-006 -2.10482e-007 1.52178e-007 -3.74803e-007 -1.36051e-007 -8.82781e-032 1.59028e-015 3.18055e-015 1.52178e-007 -3.74803e-007 -1.36051e-007 -2.84625e-006 -1.59223e-006 -2.10482e-007 1.52178e-007 -3.74803e-007 -1.36051e-007 1.52178e-007 -3.74803e-007 -1.36051e-007 -2.84625e-006 -1.59223e-006 -2.10482e-007 1.52178e-007 -3.74803e-007 -1.36051e-007 -0 -8.32304e-006 -0 61.354 26.0387 25.0007 -2.90807 -6.90077 45.868 64.1958 20.7121 -11.2364 1.59028e-015 -4.36394e-016 8.36895e-015 2.38542e-015 -4.37947e-016 5.15501e-015 1.59028e-015 -4.37947e-016 5.15539e-015 7.95139e-016 -3.88251e-017 8.36876e-015 -7.95139e-016 -1.23309e-015 2.74179e-014 1.59028e-015 -3.72721e-017 -4.45421e-015 1.59028e-015 -4.37947e-016 5.12162e-015 -7.95139e-016 -1.23309e-015 2.74179e-014 1.59028e-015 -3.72721e-017 -4.45421e-015 1.59028e-015 -4.37947e-016 5.12162e-015 7.95139e-016 -3.88251e-017 8.36876e-015 -7.95139e-016 -1.23309e-015 2.74179e-014 1.59028e-015 -3.72721e-017 -4.45421e-015 1.59028e-015 -4.37947e-016 5.12162e-015 -7.95139e-016 -1.23309e-015 2.74179e-014 1.59028e-015 -3.72721e-017 -4.45421e-015 1.59028e-015 -4.37947e-016 5.12162e-015 5.23432 -31.9355 -17.5347 0.631428 69.8803 3.18097 5.08042 19.4703 1.11118 -5.23138 -32.2 14.5089 -0.668752 69.6941 -3.35657 -6.19672 25.5821 -0.586875 
-0.121125 33.7628 -76.3879 -0 -63.0022 -0 0 12.9987 -0 0 25.9973 -0 0 25.9973 -0 0 5.31633e-005 -0 0.000829396 0.274519 -0.173106 -0 -8.32304e-006 -0 -74.5738 -15.7973 -9.36691 12.3892 16.1457 -30.4202 12.7 27.3663 -4.93144 1.52178e-007 -3.74803e-007 -1.36051e-007 -2.84625e-006 -1.59223e-006 -2.10482e-007 1.52178e-007 -3.74803e-007 -1.36051e-007 -8.82781e-032 1.59028e-015 3.18055e-015 1.52178e-007 -3.74803e-007 -1.36051e-007 -2.84625e-006 -1.59223e-006 -2.10482e-007 1.52178e-007 -3.74803e-007 -1.36051e-007 1.52178e-007 -3.74803e-007 -1.36051e-007 -2.84625e-006 -1.59223e-006 -2.10482e-007 1.52178e-007 -3.74803e-007 -1.36051e-007 -8.82781e-032 1.59028e-015 3.18055e-015 1.52178e-007 -3.74803e-007 -1.36051e-007 -2.84625e-006 -1.59223e-006 -2.10482e-007 1.52178e-007 -3.74803e-007 -1.36051e-007 1.52178e-007 -3.74803e-007 -1.36051e-007 -2.84625e-006 -1.59223e-006 -2.10482e-007 1.52178e-007 -3.74803e-007 -1.36051e-007 -0 -8.32304e-006 -0 61.354 26.0387 25.0007 -2.77705 -6.98105 46.9432 64.1958 20.7121 -11.2364 -7.95139e-016 -1.98785e-016 4.24902e-015 -7.95139e-016 7.95139e-016 -5.32991e-015 2.14708e-006 8.78044e-007 2.26973e-006 -7.95139e-016 -1.98785e-016 4.24902e-015 -1.59028e-015 -1.19271e-015 1.69215e-014 2.19057e-031 -1.19271e-015 1.05232e-014 2.14708e-006 8.78044e-007 2.26973e-006 -1.59028e-015 -1.19271e-015 1.69215e-014 2.19057e-031 -1.19271e-015 1.05232e-014 2.14708e-006 8.78044e-007 2.26973e-006 -7.95139e-016 -1.98785e-016 4.24902e-015 -1.59028e-015 -1.19271e-015 1.69215e-014 2.19057e-031 -1.19271e-015 1.05232e-014 2.14708e-006 8.78044e-007 2.26973e-006 -1.59028e-015 -1.19271e-015 1.69215e-014 2.19057e-031 -1.19271e-015 1.05232e-014 2.14708e-006 8.78044e-007 2.26973e-006 5.23781 -31.944 -17.537 0.634476 69.8676 3.75078 5.12187 19.4267 1.10411 -5.23694 -32.2071 14.5109 -0.672585 69.6797 -3.92714 -6.23919 25.5378 -0.578439 
